<svg version="1.1" xmlns="http://www.w3.org/2000/svg" xmlns:xlink="http://www.w3.org/1999/xlink" width="400" height="400" viewBox="0, 0, 400,400">
    <path d="M107.208 40.408 C 103.794 41.186,100.966 43.968,100.087 47.410 C 99.701 48.920,99.705 88.270,100.091 89.751 C 102.533 99.126,115.995 99.230,118.403 89.893 C 118.796 88.369,118.804 48.765,118.412 47.259 C 117.157 42.440,112.035 39.308,107.208 40.408 M167.667 40.428 C 164.309 41.155,161.469 43.956,160.587 47.410 C 160.205 48.908,160.205 88.259,160.587 89.757 C 162.930 98.934,175.898 99.329,178.748 90.309 L 179.167 88.983 179.167 68.640 C 179.167 50.620,179.137 48.181,178.903 47.274 C 177.649 42.412,172.629 39.353,167.667 40.428 M228.167 40.428 C 224.891 41.137,221.944 43.991,221.097 47.274 C 220.863 48.181,220.833 50.620,220.833 68.640 L 220.833 88.983 221.252 90.309 C 224.102 99.329,237.070 98.934,239.413 89.757 C 239.795 88.259,239.795 48.908,239.413 47.410 C 238.131 42.389,233.212 39.335,228.167 40.428 M288.720 40.417 C 285.311 41.158,282.466 43.888,281.588 47.259 C 281.196 48.765,281.204 88.369,281.597 89.893 C 284.005 99.230,297.467 99.126,299.909 89.751 C 300.295 88.270,300.299 48.920,299.913 47.410 C 298.641 42.429,293.692 39.336,288.720 40.417 M82.040 68.687 C 67.508 69.883,55.896 81.438,54.507 96.083 C 54.264 98.655,54.264 329.947,54.508 332.357 C 55.894 346.059,65.844 356.871,79.369 359.371 L 81.417 359.750 200.000 359.750 L 318.583 359.750 320.631 359.371 C 334.156 356.871,344.106 346.059,345.492 332.357 C 345.736 329.947,345.736 98.655,345.493 96.083 C 344.226 82.718,334.480 71.837,321.397 69.181 C 318.996 68.694,316.033 68.500,310.976 68.500 L 306.500 68.500 306.500 78.405 C 306.500 90.791,306.338 92.012,304.230 95.527 C 297.770 106.295,281.824 105.498,276.509 94.141 C 275.059 91.042,275.102 91.478,275.040 79.292 L 274.984 68.500 260.501 68.500 L 246.018 68.500 245.956 79.208 C 245.902 88.672,245.861 90.043,245.608 91.000 C 241.384 106.978,219.464 107.276,214.983 91.417 C 214.613 90.106,214.605 89.898,214.544 79.292 L 214.482 68.500 200.000 68.500 L 185.518 68.500 185.456 79.292 C 185.395 89.898,185.387 90.106,185.017 91.417 C 180.536 107.276,158.616 106.978,154.392 91.000 C 154.139 90.043,154.098 88.672,154.044 79.208 L 153.982 68.500 139.499 68.500 L 125.016 68.500 124.960 79.292 C 124.898 91.478,124.941 91.042,123.491 94.141 C 118.176 105.498,102.230 106.295,95.770 95.527 C 93.662 92.012,93.500 90.791,93.500 78.405 L 93.500 68.500 88.625 68.523 C 85.944 68.536,82.980 68.610,82.040 68.687 M327.833 141.438 C 329.215 142.102,330.243 143.129,330.899 144.500 L 331.417 145.583 331.417 235.250 L 331.417 324.917 330.900 326.000 C 330.230 327.408,329.238 328.404,327.860 329.058 L 326.750 329.583 200.000 329.583 L 73.250 329.583 72.140 329.058 C 70.762 328.404,69.770 327.408,69.100 326.000 L 68.583 324.917 68.583 235.250 L 68.583 145.583 69.101 144.500 C 69.930 142.767,71.540 141.427,73.291 141.014 C 73.652 140.929,127.335 140.877,200.333 140.891 L 326.750 140.917 327.833 141.438 M260.456 169.839 C 259.014 170.200,258.215 170.855,251.333 177.325 C 223.715 203.293,195.699 238.989,178.569 270.036 C 178.027 271.019,177.546 271.824,177.500 271.826 C 177.454 271.828,176.933 271.062,176.342 270.123 C 171.144 261.864,160.893 246.820,158.104 243.356 C 153.971 238.222,146.392 236.332,140.167 238.881 C 135.356 240.851,132.917 243.939,133.230 247.660 C 133.382 249.456,133.935 250.473,136.587 253.833 C 145.497 265.121,154.034 277.593,161.171 289.750 C 163.494 293.707,164.148 294.621,165.776 296.187 C 172.720 302.866,184.429 302.103,190.484 294.577 C 191.805 292.934,192.334 291.955,194.307 287.500 C 211.579 248.506,234.529 213.006,263.149 181.010 C 266.488 177.276,266.744 176.843,266.748 174.917 C 266.754 171.585,263.613 169.050,260.456 169.839 "
        fill="#1c3c6b"
        fill-rule="evenodd" stroke="none" />
</svg>