<svg version="1.1" xmlns="http://www.w3.org/2000/svg" xmlns:xlink="http://www.w3.org/1999/xlink" width="400" height="400" viewBox="0, 0, 400,400">
        <path
            d="M233.250 68.316 C 228.826 69.448,229.535 75.875,234.083 75.875 C 237.380 75.875,239.134 72.039,236.967 69.571 C 236.063 68.541,234.471 68.004,233.250 68.316 M256.398 88.285 C 252.741 92.298,249.516 95.840,249.229 96.157 L 248.709 96.732 245.871 95.530 C 171.936 64.224,90.027 110.322,80.677 188.500 C 80.019 193.999,79.920 195.846,79.918 202.583 C 79.899 280.497,155.421 336.039,228.588 311.922 C 245.937 306.203,261.956 295.712,274.405 281.917 C 277.018 279.022,277.439 277.873,276.408 276.453 C 274.971 274.472,273.555 274.923,269.849 278.543 C 235.283 312.314,180.138 316.178,141.500 287.536 C 104.430 260.057,91.254 212.556,109.198 171.083 C 126.347 131.448,170.620 109.488,212.333 119.928 C 216.236 120.904,223.391 123.219,223.884 123.664 C 224.006 123.774,222.318 125.669,213.881 134.895 C 211.181 137.846,210.833 138.333,211.426 138.333 C 211.557 138.333,213.896 138.824,216.624 139.424 C 219.352 140.024,223.121 140.853,225.000 141.265 C 226.879 141.677,229.579 142.270,231.000 142.583 C 232.421 142.895,237.221 143.947,241.667 144.919 C 250.519 146.855,256.680 148.205,260.667 149.082 C 262.087 149.395,265.125 150.061,267.417 150.563 C 269.708 151.065,274.904 152.204,278.963 153.094 C 283.022 153.984,286.375 154.680,286.415 154.641 C 286.484 154.572,285.338 150.912,279.586 132.833 C 278.055 128.021,276.255 122.358,275.586 120.250 C 274.917 118.142,273.153 112.592,271.667 107.917 C 270.180 103.242,268.416 97.692,267.748 95.583 C 265.117 87.288,263.129 81.081,263.088 81.037 C 263.065 81.011,260.054 84.273,256.398 88.285 M105.466 86.655 C 97.995 89.044,97.103 99.587,104.083 103.003 C 112.446 107.097,120.663 97.493,115.267 89.932 C 113.135 86.944,108.945 85.543,105.466 86.655 M109.627 89.238 C 114.451 90.522,115.801 96.925,111.879 99.920 C 107.972 102.903,102.388 100.388,102.038 95.488 C 101.748 91.438,105.692 88.190,109.627 89.238 M301.222 137.125 C 295.156 139.673,296.799 148.559,303.333 148.541 C 309.520 148.525,311.446 140.218,305.924 137.371 C 304.812 136.797,302.313 136.666,301.222 137.125 M166.155 139.923 C 164.219 141.025,163.795 143.535,165.270 145.166 C 167.311 147.426,170.948 146.157,171.130 143.122 C 171.293 140.414,168.475 138.602,166.155 139.923 M304.461 139.758 C 307.130 140.873,307.130 144.460,304.461 145.575 C 303.147 146.125,301.789 145.713,300.780 144.460 C 298.888 142.111,301.650 138.583,304.461 139.758 M168.324 142.573 C 168.648 142.962,168.250 143.532,167.699 143.468 C 167.246 143.416,167.051 143.042,167.231 142.574 C 167.350 142.263,168.067 142.263,168.324 142.573 M61.583 167.646 C 57.675 169.439,59.376 175.519,63.624 174.937 C 68.345 174.290,67.926 167.341,63.167 167.341 C 62.631 167.341,61.973 167.468,61.583 167.646 M256.521 168.875 C 256.445 169.081,255.966 170.450,255.455 171.917 C 253.650 177.104,251.943 181.991,249.734 188.292 C 244.417 203.464,242.338 209.396,237.779 222.417 C 231.865 239.305,230.448 243.342,230.160 244.125 L 229.838 245.000 236.723 245.000 L 243.608 245.000 244.401 242.708 C 245.134 240.592,247.616 233.503,250.834 224.333 C 251.558 222.271,253.173 217.658,254.424 214.083 C 255.674 210.508,257.697 204.733,258.919 201.250 C 260.141 197.767,261.940 192.629,262.916 189.833 C 263.893 187.037,264.906 184.150,265.168 183.417 C 265.430 182.683,266.442 179.796,267.417 177.000 C 268.392 174.204,269.403 171.317,269.663 170.583 C 269.924 169.850,270.187 169.081,270.247 168.875 L 270.356 168.500 263.507 168.500 L 256.658 168.500 256.521 168.875 M145.833 178.995 C 138.670 179.617,132.804 182.252,128.488 186.787 C 127.144 188.199,125.357 190.580,125.520 190.742 C 125.598 190.820,130.136 193.368,134.804 195.955 L 137.359 197.371 137.620 196.977 C 142.405 189.770,154.844 190.303,154.831 197.715 C 154.824 201.889,154.122 202.769,141.087 214.925 C 131.775 223.609,131.220 224.129,129.626 225.654 L 128.333 226.891 128.333 231.862 L 128.333 236.833 150.500 236.833 L 172.667 236.833 172.667 230.501 L 172.667 224.169 161.716 224.126 L 150.765 224.083 157.231 218.100 C 167.566 208.536,169.457 206.026,170.678 200.250 C 173.467 187.053,162.372 177.561,145.833 178.995 M197.511 186.125 C 195.090 189.494,191.198 194.912,188.862 198.167 C 186.526 201.421,183.963 204.983,183.168 206.083 C 182.372 207.183,180.509 209.769,179.027 211.829 L 176.333 215.575 176.333 220.787 L 176.333 226.000 191.417 226.000 L 206.500 226.000 206.500 231.417 L 206.500 236.833 214.333 236.833 L 222.167 236.833 222.167 231.417 L 222.167 226.000 226.333 226.000 L 230.500 226.000 230.500 219.583 L 230.500 213.167 226.333 213.167 L 222.167 213.167 222.167 208.417 L 222.167 203.667 214.583 203.667 L 207.000 203.667 207.000 208.417 L 207.000 213.167 201.240 213.167 C 197.598 213.167,195.517 213.108,195.579 213.006 C 195.634 212.918,197.235 210.612,199.139 207.881 C 201.042 205.151,204.166 200.667,206.082 197.917 C 207.998 195.167,211.450 190.215,213.754 186.913 C 216.058 183.610,218.077 180.704,218.241 180.454 L 218.538 180.000 210.225 180.000 L 201.912 180.000 197.511 186.125 M272.000 190.749 L 272.000 201.500 278.833 201.500 L 285.667 201.500 285.667 197.184 C 285.667 193.349,285.697 192.857,285.938 192.765 C 286.519 192.542,300.500 192.667,300.500 192.895 C 300.500 193.013,300.044 194.154,299.486 195.430 C 298.929 196.706,297.398 200.225,296.084 203.250 C 294.771 206.275,292.407 211.713,290.832 215.333 C 289.256 218.954,286.875 224.429,285.541 227.500 C 284.206 230.571,282.756 233.908,282.318 234.917 L 281.520 236.750 290.209 236.793 C 294.987 236.817,298.953 236.779,299.020 236.710 C 299.088 236.640,303.650 226.083,309.157 213.250 L 319.170 189.917 319.127 185.000 L 319.083 180.083 295.542 180.041 L 272.000 179.999 272.000 190.749 M254.833 257.353 C 252.745 258.184,252.324 261.099,254.070 262.633 C 257.046 265.246,261.048 261.021,258.355 258.110 C 257.521 257.209,256.011 256.885,254.833 257.353 M70.329 258.814 C 61.820 261.111,60.518 272.807,68.316 276.895 C 74.033 279.892,81.090 276.566,82.416 270.250 C 83.898 263.192,77.285 256.936,70.329 258.814 M74.213 261.412 C 79.795 262.595,81.726 269.284,77.646 273.301 C 74.965 275.941,70.457 275.842,67.852 273.087 C 63.141 268.107,67.557 260.002,74.213 261.412 M192.027 269.431 C 188.341 270.238,185.500 273.771,185.500 277.548 C 185.500 285.109,194.510 288.852,199.833 283.502 C 205.731 277.575,200.219 267.638,192.027 269.431 M196.217 272.476 C 199.832 274.070,200.622 278.972,197.713 281.759 C 193.886 285.427,187.411 281.904,188.364 276.672 C 189.021 273.067,192.880 271.005,196.217 272.476 M144.054 314.907 C 141.969 315.559,140.830 317.109,140.837 319.286 C 140.853 324.271,147.557 325.616,149.523 321.029 C 150.983 317.623,147.574 313.806,144.054 314.907 M146.281 317.825 C 147.292 318.441,147.309 320.031,146.314 320.728 C 145.861 321.045,144.698 321.079,144.326 320.786 C 142.477 319.329,144.277 316.603,146.281 317.825 "
            fill="#040404" fill-rule="evenodd" stroke="none" />
        <path d="M261.073 83.042 L 260.583 83.583 261.125 83.094 C 261.630 82.638,261.743 82.500,261.615 82.500 C 261.586 82.500,261.342 82.744,261.073 83.042 M259.077 85.208 L 258.250 86.083 259.125 85.256 C 259.606 84.801,260.000 84.408,260.000 84.381 C 260.000 84.257,259.846 84.395,259.077 85.208 M192.958 85.621 C 193.256 85.658,193.744 85.658,194.042 85.621 C 194.340 85.584,194.096 85.553,193.500 85.553 C 192.904 85.553,192.660 85.584,192.958 85.621 M201.795 85.621 C 202.094 85.658,202.544 85.657,202.795 85.619 C 203.045 85.581,202.800 85.551,202.250 85.552 C 201.700 85.553,201.495 85.584,201.795 85.621 M107.711 86.286 C 107.964 86.325,108.339 86.324,108.544 86.284 C 108.749 86.244,108.542 86.213,108.083 86.214 C 107.625 86.216,107.457 86.248,107.711 86.286 M257.159 87.292 C 255.691 88.831,255.095 89.500,255.191 89.500 C 255.240 89.500,255.936 88.787,256.737 87.917 C 258.333 86.181,258.613 85.767,257.159 87.292 M101.740 88.875 L 101.250 89.417 101.792 88.927 C 102.090 88.658,102.333 88.414,102.333 88.385 C 102.333 88.257,102.196 88.370,101.740 88.875 M107.628 89.121 C 107.928 89.158,108.378 89.157,108.628 89.119 C 108.878 89.081,108.633 89.051,108.083 89.052 C 107.533 89.053,107.328 89.084,107.628 89.121 M254.583 90.132 C 254.492 90.201,254.117 90.594,253.751 91.004 L 253.084 91.750 253.959 90.923 C 254.440 90.468,254.833 90.074,254.833 90.048 C 254.833 89.972,254.763 89.996,254.583 90.132 M103.740 90.875 L 103.250 91.417 103.792 90.927 C 104.297 90.471,104.410 90.333,104.281 90.333 C 104.252 90.333,104.009 90.577,103.740 90.875 M252.242 92.708 L 251.583 93.417 252.292 92.758 C 252.950 92.145,253.077 92.000,252.950 92.000 C 252.923 92.000,252.605 92.319,252.242 92.708 M250.481 94.554 C 248.926 96.264,248.534 96.841,249.895 95.417 C 250.973 94.288,251.651 93.465,251.464 93.512 C 251.438 93.518,250.995 93.987,250.481 94.554 M99.220 95.167 C 99.220 95.763,99.250 96.006,99.287 95.708 C 99.324 95.410,99.324 94.923,99.287 94.625 C 99.250 94.327,99.220 94.571,99.220 95.167 M186.083 117.448 C 169.450 118.301,151.628 124.834,137.750 135.163 C 135.416 136.901,131.792 139.882,131.250 140.511 C 130.951 140.858,133.428 138.879,134.250 138.114 C 134.433 137.943,134.977 137.541,135.458 137.219 C 135.940 136.897,136.333 136.567,136.333 136.484 C 136.333 136.401,136.437 136.333,136.563 136.333 C 136.689 136.333,136.885 136.222,136.998 136.085 C 137.112 135.949,137.271 135.878,137.352 135.928 C 137.433 135.979,137.500 135.945,137.500 135.854 C 137.500 135.764,137.631 135.647,137.792 135.596 C 137.952 135.545,138.271 135.332,138.500 135.121 C 138.729 134.911,139.200 134.565,139.546 134.353 C 139.892 134.141,140.297 133.846,140.445 133.698 C 140.592 133.550,140.833 133.412,140.979 133.390 C 141.125 133.369,141.270 133.272,141.303 133.176 C 141.335 133.079,141.461 133.000,141.583 133.000 C 141.706 133.000,141.831 132.944,141.861 132.875 C 141.892 132.806,142.254 132.567,142.667 132.343 C 143.540 131.868,143.862 131.585,143.705 131.428 C 143.644 131.366,143.712 131.361,143.856 131.416 C 144.136 131.524,145.333 130.903,145.333 130.650 C 145.333 130.568,145.390 130.515,145.458 130.533 C 145.740 130.608,146.331 130.297,146.227 130.129 C 146.161 130.023,146.193 129.996,146.303 130.064 C 146.569 130.229,147.538 129.696,147.395 129.465 C 147.319 129.341,147.375 129.314,147.558 129.384 C 147.963 129.539,149.016 128.978,148.904 128.667 C 148.834 128.473,148.858 128.461,149.014 128.616 C 149.204 128.804,150.833 128.167,150.833 127.904 C 150.833 127.854,150.740 127.870,150.625 127.939 C 150.483 128.024,150.490 127.974,150.645 127.782 C 150.893 127.477,151.084 127.395,150.917 127.667 C 150.749 127.937,151.131 127.859,151.882 127.468 C 152.268 127.267,152.658 127.083,152.750 127.059 C 153.603 126.833,158.473 124.693,158.377 124.586 C 158.307 124.509,158.343 124.500,158.457 124.566 C 158.571 124.631,159.734 124.339,161.041 123.916 C 162.347 123.493,163.867 123.009,164.417 122.840 C 166.577 122.178,172.890 120.723,174.358 120.549 C 174.839 120.492,175.116 120.387,175.053 120.285 C 174.996 120.191,175.030 120.166,175.130 120.227 C 175.230 120.289,176.198 120.225,177.281 120.084 C 186.811 118.848,194.240 118.850,202.262 120.093 C 203.814 120.333,205.271 120.553,205.500 120.582 C 205.988 120.644,210.539 121.715,211.750 122.053 C 212.208 122.181,213.169 122.448,213.884 122.646 C 214.600 122.845,216.062 123.316,217.134 123.694 C 218.206 124.073,219.282 124.390,219.526 124.399 C 219.769 124.409,219.939 124.463,219.904 124.520 C 219.869 124.577,220.345 124.811,220.962 125.041 C 221.680 125.309,222.064 125.540,222.029 125.683 C 221.995 125.827,222.098 125.797,222.317 125.598 C 222.505 125.428,222.611 125.212,222.554 125.119 C 222.496 125.025,222.529 124.998,222.627 125.059 C 222.839 125.190,224.060 123.821,223.877 123.656 C 223.807 123.594,222.700 123.165,221.417 122.704 C 209.782 118.524,198.326 116.819,186.083 117.448 M109.742 124.208 L 109.083 124.917 109.792 124.258 C 110.450 123.645,110.577 123.500,110.450 123.500 C 110.423 123.500,110.105 123.819,109.742 124.208 M108.417 125.583 C 108.233 125.800,107.408 126.756,106.583 127.706 C 103.609 131.133,103.439 131.342,101.250 134.268 C 100.792 134.881,100.172 135.708,99.873 136.108 C 99.575 136.507,99.371 136.833,99.422 136.833 C 99.513 136.833,99.311 137.103,98.821 137.633 C 98.320 138.175,97.767 139.061,98.009 138.932 C 98.141 138.862,98.063 138.959,97.833 139.148 C 97.604 139.338,97.469 139.494,97.534 139.496 C 97.598 139.498,97.467 139.698,97.242 139.941 C 97.017 140.184,96.833 140.477,96.833 140.594 C 96.833 140.710,96.775 140.831,96.704 140.861 C 96.476 140.959,94.519 144.130,94.622 144.234 C 94.677 144.288,94.630 144.333,94.518 144.333 C 94.406 144.333,94.360 144.408,94.417 144.500 C 94.473 144.592,94.452 144.667,94.370 144.667 C 94.164 144.667,93.806 145.488,93.927 145.683 C 93.981 145.770,93.935 145.821,93.826 145.796 C 93.609 145.746,93.000 146.672,93.115 146.875 C 93.154 146.944,93.115 147.000,93.027 147.000 C 92.787 147.000,91.803 148.983,91.936 149.198 C 92.004 149.308,91.977 149.339,91.870 149.272 C 91.630 149.124,90.816 150.745,90.938 151.127 C 91.005 151.335,90.988 151.357,90.877 151.203 C 90.706 150.965,89.120 154.154,87.344 158.309 C 86.578 160.100,86.366 160.755,86.502 160.919 C 86.633 161.077,86.628 161.171,86.482 161.261 C 86.355 161.339,86.325 161.314,86.401 161.192 C 86.466 161.087,86.446 161.000,86.356 161.000 C 86.210 161.000,85.859 161.819,85.820 162.250 C 85.812 162.342,85.741 162.494,85.662 162.589 C 85.521 162.759,84.640 165.260,83.642 168.326 C 83.206 169.665,83.161 169.953,83.341 170.242 C 83.527 170.541,83.522 170.557,83.300 170.374 C 83.081 170.193,82.997 170.349,82.673 171.541 C 82.467 172.297,82.195 173.254,82.067 173.667 C 81.689 174.885,80.714 179.084,80.268 181.417 C 79.338 186.282,79.122 187.687,78.663 191.848 C 77.843 199.302,77.809 210.179,78.587 216.500 C 79.083 220.534,79.230 221.500,79.347 221.500 C 79.414 221.500,79.430 221.649,79.382 221.832 C 78.962 223.440,82.784 238.376,85.162 244.417 C 85.234 244.600,85.406 245.050,85.545 245.417 C 85.683 245.783,85.909 246.383,86.047 246.750 C 87.749 251.257,90.905 257.766,93.750 262.638 C 93.842 262.795,94.135 263.297,94.402 263.753 C 95.911 266.337,98.853 270.674,99.024 270.569 C 99.107 270.517,99.164 270.537,99.151 270.613 C 99.089 270.970,99.259 271.254,100.544 272.942 C 101.301 273.936,102.033 274.911,102.169 275.108 C 104.516 278.494,112.566 287.029,117.080 290.917 C 117.718 291.467,118.543 292.184,118.912 292.510 C 119.281 292.836,120.183 293.585,120.917 294.173 C 121.650 294.761,122.341 295.319,122.452 295.413 C 122.563 295.507,123.088 295.904,123.619 296.296 C 124.149 296.688,125.108 297.408,125.750 297.895 C 126.858 298.738,129.639 300.625,132.000 302.138 C 132.596 302.519,133.158 302.892,133.250 302.966 C 133.342 303.041,133.642 303.219,133.917 303.363 C 134.192 303.508,135.354 304.170,136.500 304.836 C 139.821 306.764,146.082 309.845,146.778 309.892 C 146.976 309.906,147.126 309.976,147.111 310.048 C 147.053 310.324,154.729 313.251,155.026 313.067 C 155.132 313.002,155.174 313.021,155.119 313.109 C 155.034 313.247,160.083 314.967,162.083 315.482 C 166.654 316.657,168.955 317.182,169.273 317.122 C 169.484 317.081,169.623 317.103,169.582 317.169 C 169.540 317.236,169.749 317.333,170.045 317.385 C 179.105 318.964,184.453 319.500,191.138 319.500 C 195.947 319.500,200.147 319.223,205.250 318.569 C 206.350 318.428,207.642 318.269,208.121 318.217 C 208.649 318.159,208.950 318.054,208.887 317.951 C 208.825 317.852,208.865 317.833,208.981 317.905 C 209.285 318.093,214.815 317.080,217.639 316.320 C 219.268 315.882,219.356 315.861,219.718 315.846 C 219.884 315.839,219.974 315.759,219.918 315.669 C 219.861 315.577,219.923 315.545,220.058 315.597 C 220.191 315.648,220.701 315.567,221.192 315.417 C 221.682 315.267,222.271 315.108,222.500 315.065 C 222.729 315.021,223.329 314.845,223.833 314.674 C 224.338 314.502,225.350 314.176,226.083 313.948 C 227.623 313.470,230.594 312.398,230.885 312.216 C 230.994 312.148,231.194 312.076,231.329 312.056 C 231.639 312.009,233.437 311.286,235.380 310.426 C 235.910 310.192,236.373 310.000,236.409 310.000 C 236.688 310.000,242.000 307.305,242.000 307.163 C 242.000 307.063,242.073 307.025,242.161 307.080 C 242.381 307.216,244.031 306.257,243.875 306.084 C 243.806 306.008,243.847 306.003,243.966 306.071 C 244.236 306.227,246.695 304.847,246.554 304.619 C 246.499 304.530,246.558 304.492,246.685 304.536 C 246.901 304.609,248.960 303.442,249.185 303.118 C 249.241 303.038,249.342 302.988,249.408 303.008 C 249.475 303.028,249.991 302.745,250.556 302.380 C 251.121 302.014,251.864 301.548,252.207 301.345 C 252.550 301.141,252.888 300.877,252.957 300.759 C 253.027 300.640,253.383 300.389,253.750 300.200 C 254.117 300.011,254.615 299.668,254.857 299.438 C 255.099 299.208,255.327 299.049,255.362 299.085 C 255.398 299.120,255.754 298.891,256.154 298.575 C 256.553 298.259,256.949 298.000,257.033 298.000 C 257.117 298.000,257.140 297.925,257.083 297.833 C 257.027 297.742,257.097 297.667,257.240 297.667 C 257.383 297.667,257.500 297.592,257.500 297.500 C 257.500 297.408,257.574 297.333,257.665 297.333 C 257.822 297.333,259.098 296.415,259.572 295.961 C 259.694 295.845,260.035 295.563,260.332 295.333 C 260.628 295.104,261.093 294.710,261.365 294.458 C 261.637 294.206,261.922 294.000,261.999 294.000 C 262.076 294.000,262.164 293.943,262.194 293.874 C 262.225 293.805,263.037 293.065,264.000 292.229 C 264.962 291.393,265.900 290.538,266.083 290.328 C 266.267 290.118,265.540 290.698,264.468 291.616 C 228.551 322.386,175.829 326.232,135.038 301.057 C 106.498 283.444,87.062 254.747,81.435 221.917 C 80.287 215.217,79.916 210.493,79.918 202.583 C 79.925 174.314,89.574 147.770,107.373 127.056 C 108.266 126.017,108.941 125.171,108.873 125.177 C 108.805 125.183,108.600 125.365,108.417 125.583 M220.167 127.833 C 219.322 128.750,218.668 129.500,218.713 129.500 C 218.759 129.500,219.488 128.750,220.333 127.833 C 221.178 126.917,221.832 126.167,221.787 126.167 C 221.741 126.167,221.012 126.917,220.167 127.833 M217.591 130.659 L 216.765 131.583 217.666 130.714 C 218.162 130.236,218.534 129.821,218.492 129.790 C 218.451 129.760,218.045 130.151,217.591 130.659 M215.874 132.542 C 214.471 134.039,213.621 135.000,213.700 135.000 C 213.741 135.000,214.469 134.250,215.317 133.333 C 216.165 132.417,216.821 131.667,216.776 131.667 C 216.731 131.667,216.325 132.060,215.874 132.542 M213.099 135.542 C 212.930 135.748,212.519 136.217,212.187 136.583 C 211.611 137.220,211.619 137.217,212.388 136.500 C 212.830 136.087,213.264 135.619,213.352 135.458 C 213.571 135.059,213.468 135.093,213.099 135.542 M302.877 136.786 C 303.131 136.825,303.506 136.824,303.711 136.784 C 303.916 136.744,303.708 136.713,303.250 136.714 C 302.792 136.716,302.624 136.748,302.877 136.786 M211.167 137.661 C 210.799 138.060,209.793 139.227,209.467 139.632 C 209.131 140.049,208.912 139.958,211.750 140.579 C 212.850 140.820,214.050 141.087,214.417 141.174 C 215.363 141.398,220.964 142.633,222.750 143.010 C 223.575 143.185,224.775 143.446,225.417 143.590 C 226.058 143.735,227.408 144.031,228.417 144.248 C 233.536 145.350,235.062 145.684,236.667 146.053 C 237.629 146.275,238.979 146.577,239.667 146.724 C 244.125 147.682,248.059 148.539,248.917 148.738 C 249.467 148.866,250.367 149.066,250.917 149.182 C 251.467 149.298,251.992 149.411,252.083 149.434 C 252.175 149.456,252.963 149.627,253.833 149.813 C 254.704 150.000,257.142 150.538,259.250 151.010 C 261.358 151.481,263.489 151.938,263.985 152.023 C 264.480 152.109,264.938 152.212,265.002 152.251 C 265.143 152.339,269.723 153.337,270.417 153.432 C 270.692 153.469,271.012 153.536,271.127 153.579 C 271.358 153.665,273.728 154.193,277.500 154.996 C 278.829 155.280,280.517 155.656,281.250 155.833 C 281.983 156.011,282.883 156.189,283.250 156.230 C 283.617 156.271,283.992 156.330,284.083 156.361 C 284.224 156.408,284.366 156.266,284.319 156.125 C 284.114 155.510,284.245 155.342,284.852 155.439 C 285.475 155.539,285.480 155.534,285.357 155.074 C 285.180 154.412,285.455 154.493,277.417 152.743 C 270.047 151.138,265.454 150.135,260.667 149.082 C 256.521 148.170,250.332 146.814,241.667 144.919 C 237.221 143.947,232.421 142.895,231.000 142.582 C 226.329 141.554,218.479 139.837,214.917 139.064 C 210.534 138.113,210.888 138.233,211.254 137.829 C 211.419 137.647,211.523 137.473,211.485 137.443 C 211.447 137.413,211.304 137.511,211.167 137.661 M129.495 142.125 L 128.417 143.250 129.579 142.167 C 130.218 141.571,130.774 141.065,130.815 141.042 C 130.856 141.019,130.818 141.000,130.731 141.000 C 130.645 141.000,130.088 141.506,129.495 142.125 M306.379 142.667 C 306.379 143.079,306.411 143.248,306.451 143.042 C 306.491 142.835,306.491 142.498,306.451 142.292 C 306.411 142.085,306.379 142.254,306.379 142.667 M309.205 142.667 C 309.205 142.987,309.240 143.119,309.282 142.958 C 309.323 142.798,309.323 142.535,309.282 142.375 C 309.240 142.215,309.205 142.346,309.205 142.667 M171.205 142.833 C 171.205 143.154,171.240 143.285,171.282 143.125 C 171.323 142.965,171.323 142.702,171.282 142.542 C 171.240 142.381,171.205 142.512,171.205 142.833 M126.245 145.375 L 125.250 146.417 126.292 145.422 C 126.865 144.875,127.333 144.406,127.333 144.380 C 127.333 144.257,127.169 144.407,126.245 145.375 M62.875 167.282 C 63.035 167.323,63.298 167.323,63.458 167.282 C 63.619 167.240,63.487 167.205,63.167 167.205 C 62.846 167.205,62.715 167.240,62.875 167.282 M146.542 178.948 C 146.702 178.990,146.965 178.990,147.125 178.948 C 147.285 178.906,147.154 178.872,146.833 178.872 C 146.512 178.872,146.381 178.906,146.542 178.948 M271.912 190.750 C 271.912 196.708,271.933 199.122,271.958 196.113 C 271.984 193.104,271.984 188.229,271.958 185.280 C 271.933 182.330,271.912 184.792,271.912 190.750 M128.824 186.292 L 128.250 186.917 128.875 186.342 C 129.457 185.808,129.577 185.667,129.449 185.667 C 129.422 185.667,129.140 185.948,128.824 186.292 M289.458 192.791 C 291.406 192.818,294.594 192.818,296.542 192.791 C 298.490 192.765,296.896 192.743,293.000 192.743 C 289.104 192.743,287.510 192.765,289.458 192.791 M171.059 196.250 C 171.059 197.075,171.087 197.434,171.122 197.047 C 171.157 196.660,171.157 195.985,171.123 195.547 C 171.088 195.109,171.060 195.425,171.059 196.250 M101.539 201.500 C 101.539 201.821,101.573 201.952,101.615 201.792 C 101.657 201.631,101.657 201.369,101.615 201.208 C 101.573 201.048,101.539 201.179,101.539 201.500 M206.909 203.711 C 206.864 203.826,206.849 206.020,206.875 208.586 L 206.922 213.250 206.961 208.460 L 207.000 203.670 214.625 203.625 L 222.250 203.580 214.620 203.540 C 208.596 203.508,206.973 203.544,206.909 203.711 M101.230 209.333 C 101.230 210.387,101.257 210.819,101.290 210.292 C 101.323 209.765,101.323 208.902,101.290 208.375 C 101.257 207.848,101.230 208.279,101.230 209.333 M146.740 209.542 L 146.250 210.083 146.792 209.594 C 147.090 209.325,147.333 209.081,147.333 209.052 C 147.333 208.923,147.196 209.037,146.740 209.542 M144.073 212.042 L 143.583 212.583 144.125 212.094 C 144.423 211.825,144.667 211.581,144.667 211.552 C 144.667 211.423,144.529 211.537,144.073 212.042 M230.576 219.583 C 230.576 223.158,230.598 224.597,230.625 222.781 C 230.652 220.964,230.652 218.039,230.625 216.281 C 230.598 214.522,230.576 216.008,230.576 219.583 M161.073 214.542 L 160.583 215.083 161.125 214.594 C 161.423 214.325,161.667 214.081,161.667 214.052 C 161.667 213.923,161.529 214.037,161.073 214.542 M158.906 216.542 L 158.417 217.083 158.958 216.594 C 159.256 216.325,159.500 216.081,159.500 216.052 C 159.500 215.923,159.362 216.037,158.906 216.542 M101.539 217.167 C 101.539 217.487,101.573 217.619,101.615 217.458 C 101.657 217.298,101.657 217.035,101.615 216.875 C 101.573 216.715,101.539 216.846,101.539 217.167 M136.324 219.292 L 135.750 219.917 136.375 219.342 C 136.957 218.808,137.077 218.667,136.949 218.667 C 136.922 218.667,136.640 218.948,136.324 219.292 M154.573 220.542 L 154.083 221.083 154.625 220.594 C 154.923 220.325,155.167 220.081,155.167 220.052 C 155.167 219.923,155.029 220.037,154.573 220.542 M128.740 226.375 L 128.250 226.917 128.792 226.427 C 129.090 226.158,129.333 225.914,129.333 225.885 C 129.333 225.757,129.196 225.870,128.740 226.375 M290.250 236.833 L 281.417 236.921 290.198 236.961 C 295.916 236.986,299.016 236.942,299.083 236.833 C 299.140 236.742,299.163 236.684,299.135 236.706 C 299.107 236.728,295.108 236.785,290.250 236.833 M139.375 236.958 C 145.494 236.983,155.506 236.983,161.625 236.958 C 167.744 236.934,162.737 236.914,150.500 236.914 C 138.262 236.914,133.256 236.934,139.375 236.958 M210.375 236.958 C 212.552 236.985,216.115 236.985,218.292 236.958 C 220.469 236.932,218.688 236.910,214.333 236.910 C 209.979 236.910,208.198 236.932,210.375 236.958 M72.544 258.453 C 72.797 258.491,73.172 258.490,73.377 258.451 C 73.582 258.411,73.375 258.380,72.917 258.381 C 72.458 258.382,72.291 258.415,72.544 258.453 M252.872 260.333 C 252.872 260.654,252.906 260.785,252.948 260.625 C 252.990 260.465,252.990 260.202,252.948 260.042 C 252.906 259.881,252.872 260.012,252.872 260.333 M79.333 260.885 C 79.333 260.914,79.577 261.158,79.875 261.427 L 80.417 261.917 79.927 261.375 C 79.471 260.870,79.333 260.757,79.333 260.885 M72.542 261.282 C 72.702 261.323,72.965 261.323,73.125 261.282 C 73.285 261.240,73.154 261.205,72.833 261.205 C 72.512 261.205,72.381 261.240,72.542 261.282 M63.057 268.250 C 63.058 268.983,63.087 269.263,63.122 268.871 C 63.157 268.479,63.157 267.879,63.121 267.537 C 63.085 267.196,63.057 267.517,63.057 268.250 M276.872 278.000 C 276.872 278.321,276.906 278.452,276.948 278.292 C 276.990 278.131,276.990 277.869,276.948 277.708 C 276.906 277.548,276.872 277.679,276.872 278.000 M72.542 278.115 C 72.702 278.157,72.965 278.157,73.125 278.115 C 73.285 278.073,73.154 278.039,72.833 278.039 C 72.512 278.039,72.381 278.073,72.542 278.115 M193.627 283.285 C 193.834 283.324,194.134 283.323,194.294 283.281 C 194.453 283.239,194.283 283.207,193.917 283.209 C 193.550 283.211,193.420 283.245,193.627 283.285 M272.658 283.792 L 272.083 284.417 272.708 283.842 C 273.052 283.526,273.333 283.245,273.333 283.217 C 273.333 283.090,273.192 283.210,272.658 283.792 M267.828 288.625 L 266.917 289.583 267.875 288.672 C 268.402 288.171,268.833 287.740,268.833 287.714 C 268.833 287.590,268.674 287.735,267.828 288.625 M207.542 306.448 C 207.702 306.490,207.965 306.490,208.125 306.448 C 208.285 306.406,208.154 306.372,207.833 306.372 C 207.512 306.372,207.381 306.406,207.542 306.448 M148.500 316.083 C 148.811 316.404,149.103 316.667,149.149 316.667 C 149.195 316.667,148.978 316.404,148.667 316.083 C 148.356 315.762,148.064 315.500,148.018 315.500 C 147.972 315.500,148.189 315.762,148.500 316.083 M140.718 319.250 C 140.719 319.800,140.750 320.005,140.787 319.705 C 140.825 319.406,140.824 318.956,140.786 318.705 C 140.748 318.455,140.717 318.700,140.718 319.250 M143.539 319.333 C 143.539 319.654,143.573 319.785,143.615 319.625 C 143.657 319.465,143.657 319.202,143.615 319.042 C 143.573 318.881,143.539 319.012,143.539 319.333 M145.042 323.948 C 145.202 323.990,145.465 323.990,145.625 323.948 C 145.785 323.906,145.654 323.872,145.333 323.872 C 145.012 323.872,144.881 323.906,145.042 323.948 " stroke="none" fill="#b3b3b3" fill-rule="evenodd" />
        <path d="M257.667 86.490 C 257.254 86.940,256.017 88.273,254.917 89.450 C 251.645 92.953,248.587 96.357,248.530 96.560 C 248.500 96.665,248.718 96.487,249.013 96.167 C 249.308 95.846,250.008 95.092,250.567 94.490 C 251.964 92.988,253.005 91.850,254.667 90.005 C 255.446 89.140,256.627 87.852,257.292 87.143 C 258.342 86.023,258.628 85.661,258.458 85.668 C 258.435 85.670,258.079 86.039,257.667 86.490 M184.167 119.355 C 181.215 119.616,179.256 119.823,177.281 120.082 C 176.198 120.224,175.230 120.289,175.130 120.227 C 175.030 120.166,174.996 120.191,175.053 120.285 C 175.116 120.387,174.839 120.492,174.358 120.549 C 172.890 120.723,166.577 122.178,164.417 122.840 C 163.867 123.009,162.347 123.493,161.041 123.916 C 159.734 124.339,158.571 124.631,158.457 124.566 C 158.343 124.500,158.307 124.509,158.377 124.586 C 158.473 124.693,153.603 126.833,152.750 127.059 C 152.658 127.083,152.268 127.267,151.882 127.468 C 151.131 127.859,150.749 127.937,150.917 127.667 C 151.084 127.395,150.893 127.477,150.645 127.782 C 150.490 127.974,150.483 128.024,150.625 127.939 C 150.740 127.870,150.833 127.854,150.833 127.904 C 150.833 128.167,149.204 128.804,149.014 128.616 C 148.858 128.461,148.834 128.473,148.904 128.667 C 149.016 128.978,147.963 129.539,147.558 129.384 C 147.375 129.314,147.319 129.341,147.395 129.465 C 147.538 129.696,146.569 130.229,146.303 130.064 C 146.193 129.996,146.161 130.023,146.227 130.129 C 146.331 130.297,145.740 130.608,145.458 130.533 C 145.390 130.515,145.333 130.568,145.333 130.650 C 145.333 130.903,144.136 131.524,143.856 131.416 C 143.712 131.361,143.644 131.366,143.705 131.428 C 143.944 131.667,142.498 132.598,142.244 132.368 C 142.172 132.303,142.167 132.344,142.233 132.458 C 142.307 132.587,142.254 132.667,142.093 132.667 C 141.950 132.667,141.833 132.742,141.833 132.833 C 141.833 132.925,141.727 133.000,141.597 133.000 C 141.467 133.000,141.335 133.079,141.303 133.176 C 141.270 133.272,141.125 133.369,140.979 133.390 C 140.833 133.412,140.592 133.550,140.445 133.698 C 140.297 133.846,139.892 134.141,139.546 134.353 C 139.200 134.565,138.729 134.911,138.500 135.121 C 138.271 135.332,137.952 135.545,137.792 135.596 C 137.631 135.647,137.500 135.764,137.500 135.854 C 137.500 135.945,137.433 135.979,137.352 135.928 C 137.271 135.878,137.112 135.949,136.998 136.085 C 136.885 136.222,136.689 136.333,136.563 136.333 C 136.437 136.333,136.333 136.401,136.333 136.484 C 136.333 136.567,135.940 136.897,135.458 137.219 C 134.977 137.541,134.433 137.943,134.250 138.114 C 134.067 138.285,133.242 138.981,132.417 139.662 C 131.592 140.343,130.429 141.365,129.833 141.934 C 129.237 142.502,128.506 143.179,128.208 143.437 C 127.910 143.696,127.667 143.975,127.667 144.057 C 127.667 144.138,127.953 143.953,128.303 143.644 C 129.334 142.734,132.614 140.161,133.924 139.235 C 135.512 138.112,136.708 137.333,136.844 137.333 C 136.930 137.333,137.000 137.276,137.000 137.206 C 137.000 137.048,138.869 135.909,139.042 135.962 C 139.110 135.983,139.167 135.932,139.167 135.849 C 139.167 135.766,139.785 135.339,140.542 134.899 C 141.298 134.459,141.954 134.058,142.000 134.008 C 142.282 133.699,146.197 131.833,146.357 131.931 C 146.467 131.999,146.507 131.980,146.449 131.886 C 146.358 131.738,148.449 130.650,150.250 129.907 C 150.617 129.756,151.217 129.497,151.583 129.331 C 153.259 128.574,154.873 128.004,155.053 128.107 C 155.161 128.169,155.191 128.156,155.120 128.077 C 155.008 127.955,158.243 126.744,159.750 126.344 C 160.025 126.272,160.925 126.013,161.750 125.770 C 164.335 125.008,164.857 124.871,167.167 124.354 C 176.648 122.227,188.104 121.496,195.917 122.519 C 196.650 122.615,197.775 122.756,198.417 122.832 C 199.424 122.951,201.796 123.369,204.083 123.831 C 206.232 124.264,210.199 125.288,212.167 125.916 C 215.249 126.901,218.943 128.221,219.124 128.402 C 219.274 128.552,218.809 129.004,218.622 128.889 C 218.522 128.827,218.498 128.862,218.566 128.972 C 218.680 129.156,218.360 129.547,216.087 132.001 C 215.125 133.040,214.309 133.934,209.921 138.750 C 208.836 139.942,207.542 141.355,207.045 141.891 C 206.548 142.426,206.166 142.887,206.196 142.915 C 206.226 142.943,206.963 143.118,207.833 143.303 C 208.704 143.487,210.692 143.909,212.250 144.239 C 215.284 144.883,219.213 145.758,220.167 146.005 C 220.488 146.088,221.051 146.200,221.417 146.255 C 221.784 146.309,222.496 146.459,223.000 146.588 C 223.504 146.716,225.004 147.054,226.333 147.338 C 230.058 148.134,231.689 148.500,232.417 148.700 C 232.783 148.801,233.196 148.899,233.333 148.917 C 234.434 149.061,235.153 149.221,235.098 149.310 C 235.063 149.369,235.294 149.430,235.613 149.447 C 235.931 149.464,236.880 149.640,237.721 149.838 C 238.562 150.036,239.588 150.258,240.000 150.332 C 240.801 150.475,244.975 151.389,246.083 151.663 C 246.450 151.754,248.020 152.097,249.573 152.424 C 251.126 152.751,252.445 153.049,252.505 153.086 C 252.565 153.123,253.020 153.225,253.515 153.313 C 254.011 153.401,256.142 153.855,258.250 154.324 C 260.358 154.792,262.624 155.283,263.284 155.416 C 263.945 155.549,265.065 155.810,265.774 155.996 C 266.483 156.181,267.278 156.333,267.541 156.333 C 267.860 156.333,267.980 156.397,267.901 156.526 C 267.831 156.639,267.855 156.673,267.959 156.609 C 268.056 156.549,269.136 156.721,270.360 156.992 C 274.853 157.988,278.274 158.718,279.204 158.879 C 279.759 158.975,280.116 159.114,280.056 159.210 C 279.989 159.319,280.054 159.320,280.249 159.210 C 280.420 159.115,280.787 159.100,281.122 159.175 L 281.699 159.305 281.588 158.715 L 281.477 158.125 282.072 158.237 C 282.712 158.357,282.801 158.229,282.486 157.641 C 282.247 157.194,282.333 157.142,283.000 157.333 C 283.689 157.531,283.733 157.494,283.474 156.926 C 283.311 156.568,283.312 156.450,283.478 156.347 C 283.607 156.268,283.492 156.212,283.178 156.204 C 282.899 156.196,282.050 156.037,281.293 155.850 C 280.536 155.664,278.829 155.280,277.500 154.996 C 273.728 154.193,271.358 153.665,271.127 153.579 C 271.012 153.536,270.692 153.469,270.417 153.432 C 269.723 153.337,265.143 152.339,265.002 152.251 C 264.938 152.212,264.480 152.109,263.985 152.023 C 263.489 151.938,261.358 151.481,259.250 151.010 C 257.142 150.538,254.704 150.000,253.833 149.813 C 252.963 149.627,252.175 149.456,252.083 149.434 C 251.992 149.411,251.467 149.298,250.917 149.182 C 250.367 149.066,249.467 148.866,248.917 148.738 C 248.059 148.539,244.125 147.682,239.667 146.724 C 238.979 146.577,237.629 146.275,236.667 146.053 C 235.062 145.684,233.536 145.350,228.417 144.248 C 227.408 144.031,226.058 143.735,225.417 143.590 C 224.775 143.446,223.575 143.185,222.750 143.010 C 220.964 142.633,215.363 141.398,214.417 141.174 C 214.050 141.087,212.850 140.820,211.750 140.579 C 209.229 140.028,209.089 139.987,209.279 139.857 C 209.365 139.798,209.549 139.585,209.686 139.383 C 209.900 139.071,211.738 137.019,213.167 135.501 C 213.396 135.257,214.221 134.353,215.000 133.493 C 215.779 132.632,216.529 131.809,216.667 131.664 C 216.804 131.518,217.629 130.618,218.500 129.662 C 219.371 128.707,220.561 127.410,221.144 126.782 C 222.326 125.508,222.328 125.518,220.878 124.997 C 220.307 124.792,219.869 124.578,219.904 124.521 C 219.939 124.463,219.769 124.409,219.526 124.399 C 219.282 124.390,218.206 124.073,217.134 123.694 C 216.062 123.316,214.600 122.845,213.884 122.646 C 213.169 122.448,212.208 122.181,211.750 122.053 C 210.539 121.715,205.988 120.644,205.500 120.582 C 205.271 120.553,203.814 120.333,202.262 120.093 C 196.762 119.241,189.019 118.925,184.167 119.355 M106.819 127.128 C 104.799 129.217,103.234 130.927,102.722 131.605 C 102.523 131.868,102.055 132.415,101.680 132.819 C 101.306 133.224,101.000 133.589,101.000 133.630 C 101.000 133.671,100.638 134.127,100.196 134.644 C 99.278 135.718,96.396 139.596,95.412 141.083 C 95.048 141.633,94.709 142.121,94.659 142.167 C 94.608 142.212,94.371 142.587,94.131 143.000 C 93.891 143.412,93.539 143.916,93.347 144.118 C 93.156 144.320,93.000 144.531,93.000 144.585 C 93.000 144.824,90.626 148.667,90.478 148.667 C 90.388 148.667,90.360 148.742,90.417 148.833 C 90.473 148.925,90.436 149.000,90.333 149.000 C 90.231 149.000,90.185 149.061,90.231 149.135 C 90.355 149.336,89.748 150.190,89.586 150.043 C 89.509 149.974,89.500 150.009,89.565 150.123 C 89.631 150.237,89.371 150.903,88.981 151.623 C 86.617 155.978,84.244 161.200,82.676 165.500 C 82.192 166.829,81.579 168.504,81.314 169.223 C 81.050 169.941,80.833 170.660,80.833 170.820 C 80.833 170.980,80.780 171.164,80.715 171.229 C 80.545 171.399,79.771 174.102,78.849 177.741 C 78.409 179.478,78.002 180.791,77.943 180.658 C 77.884 180.525,77.877 180.583,77.928 180.786 C 77.978 180.988,77.907 181.626,77.771 182.202 C 77.471 183.469,77.062 185.505,76.923 186.417 C 76.868 186.783,76.752 187.421,76.665 187.833 C 76.502 188.612,76.187 190.925,75.757 194.500 C 75.117 199.833,74.910 207.658,75.251 213.696 C 75.275 214.124,75.344 215.324,75.403 216.362 C 75.462 217.401,75.584 218.700,75.674 219.250 C 75.765 219.800,75.912 220.963,76.001 221.833 C 76.091 222.704,76.245 223.942,76.342 224.583 C 76.440 225.225,76.541 225.938,76.567 226.167 C 76.592 226.396,76.657 226.696,76.711 226.833 C 76.764 226.971,76.855 227.458,76.912 227.917 C 77.026 228.828,77.381 230.535,77.775 232.059 C 77.914 232.596,77.981 233.234,77.925 233.476 C 77.858 233.765,77.875 233.839,77.973 233.692 C 78.080 233.532,78.156 233.652,78.235 234.109 C 78.297 234.461,78.450 235.125,78.576 235.583 C 78.703 236.042,78.965 237.017,79.160 237.750 C 79.577 239.324,79.998 240.785,80.169 241.250 C 80.645 242.550,81.143 244.403,81.055 244.546 C 80.993 244.645,81.030 244.668,81.141 244.599 C 81.249 244.532,81.333 244.576,81.333 244.698 C 81.332 244.886,82.239 247.412,82.667 248.417 C 82.745 248.600,83.006 249.275,83.247 249.917 C 83.487 250.558,83.766 251.271,83.865 251.500 C 84.095 252.028,84.406 252.754,84.723 253.500 C 86.982 258.827,90.788 265.793,94.315 271.054 C 95.288 272.505,96.196 273.860,96.333 274.066 C 97.227 275.403,99.084 277.790,102.052 281.417 C 102.951 282.516,104.895 284.696,105.878 285.707 C 106.224 286.063,106.456 286.436,106.394 286.536 C 106.332 286.636,106.358 286.671,106.450 286.614 C 106.543 286.557,107.362 287.276,108.270 288.213 C 110.544 290.559,116.002 295.515,118.269 297.293 C 122.587 300.680,129.131 305.288,130.750 306.082 C 131.236 306.320,131.466 306.457,132.333 307.023 C 133.621 307.865,141.214 311.779,142.625 312.329 C 142.923 312.445,143.167 312.611,143.167 312.697 C 143.167 312.783,143.240 312.808,143.329 312.753 C 143.418 312.698,143.661 312.759,143.870 312.890 C 144.079 313.020,144.625 313.261,145.083 313.425 C 145.542 313.590,145.992 313.776,146.083 313.840 C 146.175 313.904,146.531 314.047,146.875 314.158 C 147.219 314.269,147.500 314.433,147.500 314.523 C 147.500 314.613,147.570 314.643,147.655 314.590 C 147.741 314.538,148.059 314.603,148.364 314.736 C 149.271 315.132,151.850 316.096,152.833 316.406 C 153.337 316.565,153.900 316.758,154.083 316.836 C 154.267 316.913,154.979 317.137,155.667 317.334 C 156.354 317.531,157.142 317.767,157.417 317.859 C 158.616 318.260,164.321 319.704,166.250 320.094 C 168.134 320.476,169.970 320.814,170.750 320.923 C 171.117 320.974,171.867 321.092,172.417 321.186 C 172.967 321.279,174.054 321.424,174.833 321.508 C 175.612 321.592,176.737 321.735,177.333 321.825 C 180.827 322.357,189.147 322.511,195.250 322.157 C 197.358 322.035,199.320 321.930,199.609 321.926 C 199.898 321.921,200.106 321.871,200.072 321.814 C 200.037 321.758,200.663 321.660,201.462 321.597 C 205.924 321.243,215.071 319.397,220.500 317.753 C 222.916 317.022,226.086 315.971,226.242 315.849 C 226.338 315.774,226.642 315.660,226.917 315.596 C 227.591 315.439,231.752 313.790,233.278 313.076 C 233.954 312.759,234.547 312.500,234.596 312.500 C 234.733 312.500,240.346 309.682,240.955 309.308 C 241.252 309.126,241.589 309.031,241.705 309.098 C 241.822 309.165,241.859 309.157,241.789 309.080 C 241.719 309.003,242.469 308.483,243.456 307.925 C 244.443 307.367,245.588 306.695,246.000 306.433 C 250.443 303.603,252.818 301.962,255.298 300.006 C 256.058 299.407,256.905 298.753,257.181 298.553 C 258.314 297.732,262.775 293.707,264.000 292.402 C 264.667 291.691,264.611 291.721,263.500 292.676 C 262.813 293.267,262.225 293.806,262.194 293.875 C 262.164 293.944,262.076 294.000,261.999 294.000 C 261.922 294.000,261.637 294.206,261.365 294.458 C 261.093 294.710,260.628 295.104,260.332 295.333 C 260.035 295.563,259.694 295.845,259.572 295.961 C 259.098 296.415,257.822 297.333,257.665 297.333 C 257.574 297.333,257.500 297.408,257.500 297.500 C 257.500 297.592,257.383 297.667,257.240 297.667 C 257.097 297.667,257.027 297.742,257.083 297.833 C 257.140 297.925,257.117 298.000,257.033 298.000 C 256.949 298.000,256.553 298.259,256.154 298.575 C 255.754 298.891,255.398 299.120,255.362 299.085 C 255.327 299.049,255.099 299.208,254.857 299.438 C 254.615 299.668,254.117 300.011,253.750 300.200 C 253.383 300.389,253.025 300.644,252.953 300.767 C 252.881 300.890,252.393 301.243,251.869 301.552 C 251.345 301.860,250.580 302.343,250.169 302.625 C 249.758 302.907,249.364 303.102,249.294 303.059 C 249.224 303.016,249.167 303.055,249.167 303.146 C 249.167 303.316,248.522 303.595,248.279 303.529 C 248.204 303.508,248.182 303.557,248.231 303.636 C 248.342 303.815,246.998 304.593,246.692 304.527 C 246.568 304.500,246.509 304.546,246.560 304.629 C 246.697 304.850,244.228 306.222,243.966 306.071 C 243.847 306.003,243.806 306.008,243.875 306.084 C 244.031 306.257,242.381 307.216,242.161 307.080 C 242.073 307.025,242.000 307.063,242.000 307.163 C 242.000 307.305,236.688 310.000,236.409 310.000 C 236.373 310.000,235.910 310.192,235.380 310.426 C 233.437 311.286,231.639 312.009,231.329 312.056 C 231.194 312.076,230.994 312.148,230.885 312.216 C 230.594 312.398,227.623 313.470,226.083 313.948 C 225.350 314.176,224.338 314.502,223.833 314.674 C 223.329 314.845,222.729 315.021,222.500 315.065 C 222.271 315.108,221.682 315.267,221.192 315.417 C 220.701 315.567,220.191 315.648,220.058 315.597 C 219.923 315.545,219.861 315.577,219.918 315.669 C 219.974 315.759,219.884 315.839,219.718 315.846 C 219.356 315.861,219.268 315.882,217.639 316.320 C 214.815 317.080,209.285 318.093,208.981 317.905 C 208.865 317.833,208.825 317.852,208.887 317.951 C 208.950 318.054,208.649 318.159,208.121 318.217 C 207.642 318.269,206.350 318.428,205.250 318.569 C 200.147 319.223,195.947 319.500,191.138 319.500 C 184.453 319.500,179.105 318.964,170.045 317.385 C 169.749 317.333,169.540 317.236,169.582 317.169 C 169.623 317.103,169.484 317.081,169.273 317.122 C 168.955 317.182,166.654 316.657,162.083 315.482 C 160.083 314.967,155.034 313.247,155.119 313.109 C 155.174 313.021,155.132 313.002,155.026 313.067 C 154.729 313.251,147.053 310.324,147.111 310.048 C 147.126 309.976,146.976 309.906,146.778 309.892 C 146.082 309.845,139.821 306.764,136.500 304.836 C 135.354 304.170,134.192 303.508,133.917 303.363 C 133.642 303.219,133.342 303.041,133.250 302.966 C 133.158 302.892,132.596 302.519,132.000 302.138 C 129.639 300.625,126.858 298.738,125.750 297.895 C 125.108 297.408,124.149 296.688,123.619 296.296 C 123.088 295.904,122.563 295.507,122.452 295.413 C 122.341 295.319,121.650 294.761,120.917 294.173 C 120.183 293.585,119.281 292.836,118.912 292.510 C 118.543 292.184,117.718 291.467,117.080 290.917 C 112.566 287.029,104.516 278.494,102.169 275.108 C 102.033 274.911,101.301 273.936,100.544 272.942 C 99.259 271.254,99.089 270.970,99.151 270.613 C 99.164 270.537,99.107 270.517,99.024 270.569 C 98.853 270.674,95.911 266.337,94.402 263.753 C 94.135 263.297,93.842 262.795,93.750 262.638 C 90.926 257.803,87.576 250.895,86.085 246.833 C 85.880 246.274,85.439 245.120,85.162 244.417 C 82.784 238.376,78.962 223.440,79.382 221.832 C 79.430 221.649,79.414 221.500,79.347 221.500 C 79.230 221.500,79.083 220.534,78.587 216.500 C 77.809 210.179,77.843 199.302,78.663 191.848 C 79.122 187.687,79.338 186.282,80.268 181.417 C 80.714 179.084,81.689 174.885,82.067 173.667 C 82.195 173.254,82.467 172.297,82.673 171.541 C 82.997 170.349,83.081 170.193,83.300 170.374 C 83.522 170.557,83.527 170.541,83.341 170.242 C 83.161 169.953,83.206 169.665,83.642 168.326 C 84.640 165.260,85.521 162.759,85.662 162.589 C 85.741 162.494,85.812 162.342,85.820 162.250 C 85.859 161.819,86.210 161.000,86.356 161.000 C 86.446 161.000,86.466 161.087,86.401 161.192 C 86.325 161.314,86.355 161.339,86.482 161.261 C 86.628 161.171,86.633 161.077,86.502 160.919 C 86.366 160.755,86.578 160.100,87.344 158.309 C 89.120 154.154,90.706 150.965,90.877 151.203 C 90.988 151.357,91.005 151.335,90.938 151.127 C 90.816 150.745,91.630 149.124,91.870 149.272 C 91.977 149.339,92.004 149.308,91.936 149.198 C 91.803 148.983,92.787 147.000,93.027 147.000 C 93.115 147.000,93.154 146.944,93.115 146.875 C 93.000 146.672,93.609 145.746,93.826 145.796 C 93.935 145.821,93.981 145.770,93.927 145.683 C 93.806 145.488,94.164 144.667,94.370 144.667 C 94.452 144.667,94.473 144.592,94.417 144.500 C 94.360 144.408,94.406 144.333,94.518 144.333 C 94.630 144.333,94.677 144.288,94.622 144.234 C 94.519 144.130,96.476 140.959,96.704 140.861 C 96.775 140.831,96.833 140.695,96.833 140.560 C 96.833 140.416,96.914 140.363,97.026 140.433 C 97.143 140.505,97.173 140.478,97.103 140.365 C 97.040 140.263,97.141 140.026,97.327 139.839 C 97.514 139.653,97.610 139.498,97.542 139.496 C 97.473 139.494,97.604 139.338,97.833 139.148 C 98.063 138.959,98.141 138.862,98.009 138.932 C 97.767 139.061,98.320 138.175,98.821 137.633 C 99.311 137.103,99.513 136.833,99.422 136.833 C 99.371 136.833,99.575 136.507,99.873 136.108 C 100.172 135.708,100.792 134.878,101.250 134.262 C 102.250 132.917,104.178 130.450,104.320 130.333 C 104.376 130.287,104.758 129.838,105.169 129.333 C 105.580 128.829,106.539 127.723,107.300 126.875 C 109.141 124.825,108.949 124.926,106.819 127.128 " stroke="none" fill="#bcbcbc" fill-rule="evenodd" />
        <path d="M252.509 91.577 C 248.612 95.483,247.829 96.342,248.083 96.440 C 248.424 96.571,248.475 96.521,252.333 92.244 C 253.571 90.872,255.213 89.094,255.982 88.292 C 258.700 85.458,257.186 86.891,252.509 91.577 M107.794 104.118 C 108.001 104.158,108.301 104.156,108.460 104.115 C 108.620 104.073,108.450 104.040,108.083 104.042 C 107.717 104.044,107.586 104.078,107.794 104.118 M182.833 122.183 C 178.249 122.406,171.915 123.282,167.167 124.351 C 164.855 124.872,164.330 125.010,161.750 125.770 C 160.925 126.013,160.025 126.272,159.750 126.344 C 158.243 126.744,155.008 127.955,155.120 128.077 C 155.191 128.156,155.161 128.169,155.053 128.107 C 154.873 128.004,153.259 128.574,151.583 129.331 C 151.217 129.497,150.617 129.756,150.250 129.907 C 148.449 130.650,146.358 131.738,146.449 131.886 C 146.507 131.980,146.467 131.999,146.357 131.931 C 146.197 131.833,142.282 133.699,142.000 134.008 C 141.954 134.058,141.298 134.459,140.542 134.899 C 139.785 135.339,139.167 135.766,139.167 135.849 C 139.167 135.932,139.110 135.983,139.042 135.962 C 138.869 135.909,137.000 137.048,137.000 137.206 C 137.000 137.276,136.930 137.333,136.844 137.333 C 136.708 137.333,135.512 138.112,133.924 139.235 C 132.766 140.054,129.570 142.549,128.261 143.656 C 127.304 144.465,124.603 147.212,123.410 148.588 C 121.837 150.403,120.226 152.443,120.583 152.167 C 120.761 152.029,121.051 151.804,121.228 151.667 C 121.405 151.529,121.689 151.285,121.858 151.125 C 122.028 150.965,122.208 150.833,122.260 150.833 C 122.311 150.833,122.817 150.510,123.385 150.114 C 127.475 147.262,134.905 143.196,139.250 141.431 C 140.075 141.096,140.900 140.756,141.083 140.677 C 142.341 140.129,147.829 138.279,149.750 137.754 C 150.300 137.604,150.975 137.416,151.250 137.336 C 152.321 137.024,156.030 136.168,158.000 135.777 C 165.187 134.353,175.575 133.814,182.833 134.491 C 184.254 134.623,185.653 134.736,185.942 134.741 C 186.232 134.746,186.441 134.794,186.408 134.847 C 186.375 134.901,187.076 135.036,187.966 135.149 C 188.855 135.261,190.033 135.463,190.583 135.597 C 191.133 135.731,191.958 135.911,192.417 135.997 C 196.063 136.681,199.546 137.706,205.500 139.845 C 207.011 140.388,207.455 140.682,207.037 140.861 C 206.928 140.908,200.665 147.742,195.533 153.413 C 194.008 155.099,193.993 155.021,195.919 155.403 C 196.651 155.548,197.737 155.782,198.333 155.921 C 198.929 156.061,200.017 156.287,200.750 156.423 C 201.483 156.560,202.308 156.742,202.583 156.829 C 203.052 156.977,204.798 157.355,207.641 157.923 C 208.315 158.057,208.934 158.209,209.017 158.260 C 209.100 158.312,209.524 158.417,209.959 158.495 C 210.729 158.633,214.231 159.381,216.583 159.911 C 217.225 160.055,218.800 160.398,220.083 160.672 C 221.367 160.947,222.904 161.284,223.500 161.422 C 224.096 161.559,225.596 161.892,226.833 162.161 C 228.071 162.430,229.608 162.770,230.250 162.916 C 230.892 163.063,231.904 163.285,232.500 163.409 C 235.926 164.125,239.314 164.853,240.216 165.067 C 243.300 165.800,244.392 166.005,244.720 165.913 C 245.007 165.833,245.031 165.848,244.833 165.987 C 244.624 166.133,244.639 166.162,244.927 166.164 C 245.115 166.166,245.865 166.310,246.593 166.485 C 247.321 166.661,248.629 166.957,249.500 167.143 C 250.371 167.330,252.125 167.716,253.397 168.001 C 254.670 168.286,255.814 168.479,255.939 168.431 C 256.064 168.383,256.167 168.398,256.167 168.464 C 256.167 168.529,259.388 168.562,263.326 168.537 L 270.486 168.490 270.101 169.550 L 269.717 170.611 270.101 170.538 C 270.431 170.474,270.470 170.393,270.383 169.956 C 270.282 169.450,270.284 169.448,270.899 169.548 C 271.555 169.655,271.560 169.641,271.200 168.685 C 271.131 168.500,271.241 168.477,271.744 168.571 L 272.375 168.690 272.266 168.111 L 272.158 167.533 272.750 167.667 L 273.342 167.800 273.232 167.211 L 273.121 166.621 273.742 166.737 C 274.403 166.861,274.408 166.846,274.039 165.867 C 273.963 165.664,274.322 165.681,275.110 165.920 C 275.251 165.962,275.262 165.832,275.152 165.449 C 275.068 165.157,275.000 164.891,275.000 164.858 C 275.000 164.824,275.262 164.845,275.583 164.906 C 276.212 165.024,276.264 164.944,276.004 164.259 C 275.841 163.833,275.845 163.831,276.523 163.940 C 277.253 164.056,277.255 164.050,276.875 163.040 C 276.830 162.919,276.892 162.860,277.023 162.901 C 278.013 163.212,278.166 163.187,277.997 162.742 C 277.730 162.041,277.785 161.954,278.417 162.072 C 279.044 162.190,279.133 162.059,278.820 161.475 C 278.581 161.029,278.646 160.993,279.386 161.160 C 280.054 161.310,280.058 161.301,279.702 160.356 C 279.634 160.176,279.762 160.153,280.323 160.248 C 280.998 160.362,281.022 160.352,280.848 160.028 C 280.748 159.841,280.667 159.531,280.667 159.338 C 280.667 159.033,280.621 159.013,280.313 159.177 C 280.119 159.281,280.005 159.294,280.059 159.206 C 280.115 159.115,279.740 158.972,279.204 158.879 C 278.274 158.718,274.853 157.988,270.360 156.992 C 269.136 156.721,268.056 156.549,267.959 156.609 C 267.855 156.673,267.831 156.639,267.901 156.526 C 267.980 156.397,267.860 156.333,267.541 156.333 C 267.278 156.333,266.483 156.181,265.774 155.996 C 265.065 155.810,263.945 155.549,263.284 155.416 C 262.624 155.283,260.358 154.792,258.250 154.324 C 256.142 153.855,254.011 153.401,253.515 153.313 C 253.020 153.225,252.565 153.123,252.505 153.086 C 252.445 153.049,251.126 152.751,249.573 152.424 C 248.020 152.097,246.450 151.754,246.083 151.663 C 244.975 151.389,240.801 150.475,240.000 150.332 C 239.588 150.258,238.562 150.036,237.721 149.838 C 236.880 149.640,235.931 149.464,235.613 149.447 C 235.294 149.430,235.063 149.369,235.098 149.310 C 235.153 149.221,234.434 149.061,233.333 148.917 C 233.196 148.899,232.783 148.801,232.417 148.700 C 231.689 148.500,230.058 148.134,226.333 147.338 C 225.004 147.054,223.504 146.716,223.000 146.588 C 222.496 146.459,221.784 146.309,221.417 146.255 C 221.051 146.200,220.488 146.088,220.167 146.005 C 219.213 145.758,215.284 144.883,212.250 144.239 C 210.692 143.909,208.704 143.487,207.833 143.303 C 206.963 143.118,206.226 142.943,206.196 142.915 C 206.166 142.887,206.548 142.426,207.045 141.891 C 207.542 141.355,208.836 139.942,209.921 138.750 C 214.309 133.934,215.125 133.040,216.087 132.001 C 218.360 129.547,218.680 129.156,218.566 128.972 C 218.498 128.862,218.522 128.827,218.622 128.889 C 218.809 129.004,219.274 128.552,219.124 128.402 C 218.943 128.221,215.249 126.901,212.167 125.916 C 210.199 125.288,206.232 124.264,204.083 123.831 C 201.796 123.369,199.424 122.951,198.417 122.832 C 197.775 122.756,196.650 122.615,195.917 122.520 C 192.479 122.072,187.673 121.948,182.833 122.183 M102.637 131.208 C 94.374 139.598,91.905 142.197,90.165 144.333 C 89.754 144.837,89.327 145.346,89.217 145.463 C 88.917 145.779,86.403 149.031,85.199 150.661 C 83.817 152.531,82.122 155.035,81.068 156.761 C 80.602 157.526,80.126 158.264,80.012 158.402 C 79.898 158.539,79.860 158.742,79.928 158.852 C 79.998 158.965,79.981 159.008,79.889 158.951 C 79.799 158.896,79.431 159.351,79.071 159.964 C 78.711 160.576,78.342 161.203,78.250 161.356 C 78.158 161.510,77.839 162.097,77.540 162.660 C 77.241 163.224,76.730 164.169,76.405 164.760 C 76.080 165.351,75.868 165.921,75.933 166.026 C 75.998 166.132,75.980 166.174,75.892 166.119 C 75.701 166.002,74.550 168.244,73.172 171.417 C 73.013 171.783,72.652 172.608,72.369 173.250 C 71.539 175.134,70.511 177.787,69.884 179.667 C 69.563 180.629,69.188 181.668,69.051 181.974 C 68.915 182.281,68.840 182.675,68.886 182.849 C 68.932 183.024,68.915 183.134,68.849 183.093 C 68.670 182.983,66.968 188.765,66.227 192.000 C 64.690 198.710,63.962 203.359,63.330 210.500 C 62.022 225.278,64.602 244.905,69.507 257.500 C 69.703 258.004,69.869 258.510,69.876 258.625 C 69.892 258.877,70.167 258.907,70.167 258.657 C 70.167 258.560,70.242 258.527,70.333 258.583 C 70.425 258.640,70.582 258.635,70.683 258.573 C 71.546 258.040,75.347 258.505,77.066 259.355 C 83.801 262.684,84.661 272.082,78.614 276.270 L 78.144 276.596 78.822 277.711 C 79.195 278.325,79.500 278.904,79.500 278.997 C 79.500 279.090,79.575 279.167,79.667 279.167 C 79.758 279.167,79.833 279.246,79.833 279.344 C 79.833 279.441,79.945 279.685,80.081 279.885 C 80.216 280.086,81.276 281.675,82.434 283.417 C 83.593 285.158,84.588 286.621,84.647 286.667 C 84.705 286.712,84.940 287.031,85.168 287.374 C 85.397 287.717,85.640 287.998,85.708 287.999 C 85.777 287.999,85.833 288.109,85.833 288.242 C 85.833 288.375,85.927 288.543,86.042 288.617 C 86.157 288.690,86.459 289.056,86.712 289.431 C 86.966 289.805,87.304 290.255,87.464 290.431 C 87.624 290.606,88.384 291.536,89.153 292.496 C 89.923 293.457,90.634 294.329,90.734 294.434 C 90.835 294.539,91.442 295.210,92.083 295.925 C 93.599 297.614,96.583 300.714,98.167 302.244 C 101.194 305.171,101.811 305.700,102.030 305.565 C 102.139 305.498,102.172 305.523,102.110 305.624 C 101.966 305.856,102.401 306.254,106.355 309.500 C 108.555 311.306,115.296 316.167,115.601 316.167 C 115.645 316.167,115.771 316.246,115.882 316.343 C 116.257 316.670,119.909 318.942,121.083 319.577 C 121.725 319.924,122.325 320.266,122.417 320.338 C 122.508 320.409,123.258 320.821,124.083 321.253 C 124.908 321.685,125.771 322.138,126.000 322.260 C 128.972 323.842,137.906 327.643,139.750 328.110 C 139.933 328.156,140.233 328.261,140.417 328.343 C 141.106 328.651,145.468 330.032,146.750 330.348 C 147.483 330.529,148.458 330.786,148.917 330.920 C 150.567 331.402,155.158 332.378,158.250 332.905 C 162.422 333.615,163.033 333.700,163.498 333.631 C 163.774 333.591,164.000 333.603,164.000 333.659 C 164.000 333.831,167.669 334.162,171.796 334.364 C 179.342 334.732,188.484 334.075,196.667 332.578 C 197.446 332.435,198.458 332.253,198.917 332.174 C 201.702 331.692,208.683 329.774,213.000 328.304 C 215.248 327.539,216.076 327.227,216.722 326.903 C 216.981 326.773,217.267 326.667,217.356 326.667 C 217.445 326.667,217.833 326.527,218.217 326.357 C 218.602 326.187,219.155 325.946,219.446 325.822 C 219.738 325.697,219.932 325.525,219.879 325.439 C 219.824 325.350,219.872 325.338,219.989 325.410 C 220.341 325.627,230.084 320.938,229.900 320.640 C 229.845 320.551,229.939 320.501,230.108 320.531 C 230.295 320.562,230.399 320.496,230.371 320.363 C 230.345 320.236,230.405 320.191,230.512 320.257 C 230.614 320.321,230.913 320.214,231.176 320.020 C 231.438 319.825,231.684 319.667,231.722 319.667 C 231.840 319.667,234.841 317.840,235.854 317.153 C 236.382 316.794,236.860 316.500,236.916 316.500 C 237.021 316.500,239.022 315.154,239.167 314.986 C 239.213 314.933,239.850 314.466,240.583 313.948 C 245.740 310.309,249.494 306.980,257.999 298.502 C 262.092 294.422,264.572 291.912,263.512 292.925 C 260.896 295.422,258.229 297.793,257.181 298.553 C 256.905 298.753,256.058 299.407,255.298 300.006 C 252.818 301.962,250.443 303.603,246.000 306.433 C 245.588 306.695,244.443 307.367,243.456 307.925 C 242.469 308.483,241.719 309.003,241.789 309.080 C 241.859 309.157,241.822 309.165,241.705 309.098 C 241.589 309.031,241.252 309.126,240.955 309.308 C 240.346 309.682,234.733 312.500,234.596 312.500 C 234.547 312.500,233.954 312.759,233.278 313.076 C 231.752 313.790,227.591 315.439,226.917 315.596 C 226.642 315.660,226.338 315.774,226.242 315.849 C 226.086 315.971,222.916 317.022,220.500 317.753 C 215.071 319.397,205.924 321.243,201.462 321.597 C 200.663 321.660,200.037 321.758,200.072 321.814 C 200.106 321.871,199.898 321.921,199.609 321.926 C 199.320 321.930,197.358 322.035,195.250 322.157 C 189.147 322.511,180.827 322.357,177.333 321.825 C 176.737 321.735,175.612 321.592,174.833 321.508 C 174.054 321.424,172.967 321.279,172.417 321.186 C 171.867 321.092,171.117 320.974,170.750 320.923 C 169.970 320.814,168.134 320.476,166.250 320.094 C 164.321 319.704,158.616 318.260,157.417 317.859 C 157.142 317.767,156.354 317.531,155.667 317.334 C 154.979 317.137,154.267 316.913,154.083 316.836 C 153.900 316.758,153.337 316.565,152.833 316.406 C 151.850 316.096,149.271 315.132,148.364 314.736 C 148.059 314.603,147.741 314.538,147.655 314.590 C 147.570 314.643,147.500 314.613,147.500 314.523 C 147.500 314.433,147.219 314.269,146.875 314.158 C 146.531 314.047,146.175 313.904,146.083 313.840 C 145.992 313.776,145.542 313.590,145.083 313.425 C 144.625 313.261,144.079 313.020,143.870 312.890 C 143.661 312.759,143.418 312.698,143.329 312.753 C 143.240 312.808,143.167 312.783,143.167 312.697 C 143.167 312.611,142.923 312.445,142.625 312.329 C 141.214 311.779,133.621 307.865,132.333 307.023 C 131.466 306.457,131.236 306.320,130.750 306.082 C 129.131 305.288,122.587 300.680,118.269 297.293 C 116.002 295.515,110.544 290.559,108.270 288.213 C 107.362 287.276,106.543 286.557,106.450 286.614 C 106.358 286.671,106.332 286.636,106.394 286.536 C 106.456 286.436,106.224 286.063,105.878 285.707 C 104.895 284.696,102.951 282.516,102.052 281.417 C 99.084 277.790,97.227 275.403,96.333 274.066 C 96.196 273.860,95.288 272.505,94.315 271.054 C 90.788 265.793,86.982 258.827,84.723 253.500 C 84.406 252.754,84.095 252.028,83.865 251.500 C 83.766 251.271,83.487 250.558,83.247 249.917 C 83.006 249.275,82.745 248.600,82.667 248.417 C 82.239 247.412,81.332 244.886,81.333 244.698 C 81.333 244.576,81.249 244.532,81.141 244.599 C 81.030 244.668,80.993 244.645,81.055 244.546 C 81.143 244.403,80.645 242.550,80.169 241.250 C 79.998 240.785,79.577 239.324,79.160 237.750 C 78.965 237.017,78.703 236.042,78.576 235.583 C 78.450 235.125,78.297 234.461,78.235 234.109 C 78.156 233.652,78.080 233.532,77.973 233.692 C 77.875 233.839,77.858 233.765,77.925 233.476 C 77.981 233.234,77.914 232.596,77.775 232.059 C 77.381 230.535,77.026 228.828,76.912 227.917 C 76.855 227.458,76.764 226.971,76.711 226.833 C 76.657 226.696,76.592 226.396,76.567 226.167 C 76.541 225.938,76.440 225.225,76.342 224.583 C 76.245 223.942,76.091 222.704,76.001 221.833 C 75.912 220.963,75.765 219.800,75.674 219.250 C 75.584 218.700,75.462 217.401,75.403 216.362 C 75.344 215.324,75.275 214.124,75.251 213.696 C 74.910 207.658,75.117 199.833,75.757 194.500 C 76.187 190.925,76.502 188.612,76.665 187.833 C 76.752 187.421,76.868 186.783,76.923 186.417 C 77.062 185.505,77.471 183.469,77.771 182.202 C 77.907 181.626,77.978 180.988,77.928 180.786 C 77.877 180.583,77.884 180.525,77.943 180.658 C 78.002 180.791,78.409 179.478,78.849 177.741 C 79.771 174.102,80.545 171.399,80.715 171.229 C 80.780 171.164,80.833 170.980,80.833 170.820 C 80.833 170.660,81.050 169.941,81.314 169.223 C 81.579 168.504,82.192 166.829,82.676 165.500 C 84.244 161.200,86.617 155.978,88.981 151.623 C 89.371 150.903,89.631 150.237,89.565 150.123 C 89.500 150.009,89.509 149.974,89.586 150.043 C 89.748 150.190,90.355 149.336,90.231 149.135 C 90.185 149.061,90.231 149.000,90.333 149.000 C 90.436 149.000,90.473 148.925,90.417 148.833 C 90.360 148.742,90.388 148.667,90.478 148.667 C 90.626 148.667,93.000 144.824,93.000 144.585 C 93.000 144.531,93.156 144.320,93.347 144.118 C 93.539 143.916,93.891 143.412,94.131 143.000 C 94.371 142.587,94.608 142.212,94.659 142.167 C 94.709 142.121,95.048 141.633,95.412 141.083 C 96.396 139.596,99.278 135.718,100.196 134.644 C 100.638 134.127,101.000 133.671,101.000 133.630 C 101.000 133.589,101.306 133.224,101.680 132.819 C 102.055 132.415,102.523 131.868,102.722 131.605 C 103.386 130.726,105.053 128.944,108.248 125.697 C 109.991 123.926,111.448 122.445,111.486 122.405 C 111.524 122.366,111.516 122.333,111.467 122.333 C 111.418 122.333,107.444 126.327,102.637 131.208 M300.205 142.667 C 300.205 142.987,300.240 143.119,300.282 142.958 C 300.323 142.798,300.323 142.535,300.282 142.375 C 300.240 142.215,300.205 142.346,300.205 142.667 M285.705 197.123 L 285.667 201.496 278.792 201.542 L 271.917 201.587 278.797 201.627 C 284.226 201.658,285.694 201.622,285.758 201.455 C 285.803 201.339,285.818 199.333,285.792 196.997 L 285.744 192.750 285.705 197.123 M163.409 212.375 L 162.750 213.083 163.458 212.425 C 164.117 211.812,164.243 211.667,164.117 211.667 C 164.090 211.667,163.771 211.985,163.409 212.375 M156.304 224.125 C 159.358 224.150,164.308 224.150,167.304 224.125 C 170.299 224.099,167.800 224.079,161.750 224.079 C 155.700 224.079,153.249 224.099,156.304 224.125 M206.408 231.500 C 206.408 234.479,206.430 235.698,206.458 234.208 C 206.486 232.719,206.486 230.281,206.458 228.792 C 206.430 227.302,206.408 228.521,206.408 231.500 M71.309 261.441 C 70.893 261.514,70.880 261.544,71.085 261.968 C 71.470 262.766,72.000 263.979,72.000 264.063 C 72.000 264.107,72.233 264.655,72.518 265.280 C 72.802 265.905,73.307 267.017,73.639 267.750 C 73.971 268.483,74.787 270.161,75.452 271.478 C 76.118 272.795,76.611 273.957,76.549 274.061 C 76.487 274.165,76.562 274.148,76.716 274.023 C 76.870 273.898,76.956 273.730,76.906 273.650 C 76.857 273.569,76.922 273.545,77.052 273.595 C 78.034 273.971,80.044 269.610,79.746 267.750 C 79.703 267.475,79.624 266.998,79.572 266.689 C 79.001 263.295,75.040 260.780,71.309 261.441 M65.881 268.250 C 65.882 268.708,65.915 268.876,65.953 268.623 C 65.991 268.369,65.990 267.994,65.951 267.789 C 65.911 267.584,65.880 267.792,65.881 268.250 M146.374 314.741 C 146.534 314.811,146.852 314.879,147.081 314.893 C 147.309 314.906,147.535 315.018,147.583 315.142 C 147.630 315.266,147.785 315.323,147.927 315.269 C 148.072 315.214,148.140 315.241,148.084 315.333 C 148.029 315.422,148.231 315.646,148.533 315.830 C 148.836 316.015,149.026 316.166,148.956 316.166 C 148.886 316.166,149.021 316.470,149.255 316.841 C 150.542 318.880,149.884 321.902,147.875 323.176 C 143.508 325.946,138.590 320.722,141.609 316.521 C 142.646 315.078,145.075 314.171,146.374 314.741 M144.730 317.739 C 143.099 318.449,143.375 320.714,145.121 320.948 C 147.041 321.206,147.690 318.480,145.888 317.727 C 145.249 317.460,145.375 317.459,144.730 317.739 " stroke="none" fill="#c4c4c4" fill-rule="evenodd" />
</svg>