<svg version="1.1" xmlns="http://www.w3.org/2000/svg" xmlns:xlink="http://www.w3.org/1999/xlink" width="400" height="266.55" viewBox="0, 0, 400,266.55">
    <path d="M343.266 55.009 C 323.671 56.626,308.833 72.787,308.833 92.513 C 308.833 104.404,312.510 114.317,321.158 125.745 C 322.879 128.018,323.934 129.330,329.067 135.583 C 337.755 146.165,341.962 153.121,344.696 161.417 C 345.878 165.006,346.525 165.304,347.329 162.631 C 350.056 153.575,354.161 146.834,365.066 133.509 C 378.183 117.480,381.974 110.085,383.351 97.833 C 386.099 73.377,367.067 53.045,343.266 55.009 M350.833 67.407 C 370.857 71.316,378.455 95.770,364.095 110.089 C 347.471 126.666,319.469 113.877,321.024 90.417 C 321.783 78.954,330.785 69.058,342.000 67.357 C 342.688 67.253,343.438 67.135,343.667 67.096 C 344.616 66.933,349.490 67.145,350.833 67.407 M49.739 92.590 C 30.569 94.684,16.418 110.616,16.436 130.083 C 16.449 143.828,20.683 153.608,33.250 168.925 C 40.348 177.576,42.482 180.351,45.053 184.275 C 48.497 189.529,50.714 194.068,52.411 199.333 C 53.130 201.563,53.218 201.700,53.899 201.634 C 54.398 201.585,54.426 201.532,55.115 199.431 C 58.107 190.292,61.877 184.115,72.007 171.750 C 85.621 155.134,89.159 148.394,90.866 135.833 C 94.237 111.029,74.163 89.922,49.739 92.590 M58.917 104.971 C 77.804 109.046,85.570 132.148,72.837 146.377 C 57.183 163.871,28.593 153.126,28.593 129.750 C 28.593 113.682,43.360 101.615,58.917 104.971 M272.637 157.340 C 270.847 157.549,270.477 157.806,270.745 158.651 C 270.906 159.157,271.210 159.185,274.314 158.976 C 277.453 158.764,277.667 158.702,277.667 158.013 C 277.667 157.147,276.096 156.937,272.637 157.340 M285.064 158.090 C 284.652 158.718,284.958 159.283,285.784 159.422 C 286.132 159.481,287.467 159.741,288.750 160.000 C 291.299 160.513,291.836 160.447,291.831 159.621 C 291.825 158.816,291.508 158.691,287.676 157.987 C 285.463 157.580,285.396 157.582,285.064 158.090 M259.883 160.012 C 256.850 161.005,256.301 161.443,257.095 162.238 C 257.468 162.611,257.570 162.593,260.557 161.644 C 263.516 160.703,263.667 160.628,263.667 160.089 C 263.667 158.983,263.065 158.971,259.883 160.012 M298.825 161.682 C 298.385 162.504,298.656 162.718,301.631 163.893 C 304.727 165.116,304.700 165.109,305.071 164.738 C 305.896 163.914,305.366 163.442,302.306 162.269 C 299.618 161.240,299.108 161.154,298.825 161.682 M248.583 165.194 C 245.988 166.817,244.500 168.012,244.500 168.474 C 244.500 169.636,245.327 169.599,247.057 168.360 C 247.805 167.825,248.885 167.072,249.458 166.687 C 251.424 165.367,250.588 163.941,248.583 165.194 M312.095 167.095 C 311.307 167.884,311.625 168.186,314.683 169.553 C 317.112 170.639,317.349 170.724,317.848 170.686 C 318.526 170.636,318.513 169.000,317.835 169.000 C 317.749 169.000,316.617 168.512,315.321 167.917 C 312.808 166.762,312.505 166.685,312.095 167.095 M144.992 167.916 C 141.670 168.319,140.833 168.601,140.833 169.319 C 140.833 170.019,141.398 170.230,142.706 170.021 C 145.248 169.614,146.102 169.502,146.676 169.501 C 147.451 169.500,147.875 169.175,147.875 168.583 C 147.875 168.087,147.457 167.654,147.010 167.685 C 146.867 167.695,145.959 167.799,144.992 167.916 M155.467 168.207 C 154.385 169.057,155.028 169.625,157.593 170.084 C 158.779 170.297,160.098 170.559,160.524 170.667 C 161.507 170.917,162.000 170.701,162.000 170.020 C 162.000 169.280,161.568 169.066,159.167 168.614 C 155.807 167.981,155.761 167.976,155.467 168.207 M132.357 171.585 C 128.816 173.234,127.412 174.336,127.901 175.083 C 128.275 175.653,128.671 175.609,129.971 174.853 C 130.583 174.498,131.646 173.927,132.333 173.585 C 134.242 172.635,134.654 172.027,133.796 171.426 C 133.333 171.102,133.417 171.092,132.357 171.585 M169.109 171.971 C 168.340 172.821,168.586 173.029,171.983 174.402 C 174.944 175.599,175.500 175.631,175.500 174.605 C 175.500 174.006,175.091 173.752,172.386 172.671 C 169.599 171.558,169.502 171.537,169.109 171.971 M325.370 172.593 C 324.952 172.886,324.883 173.526,325.231 173.874 C 325.693 174.336,330.814 175.896,331.236 175.703 C 332.213 175.258,331.843 174.290,330.553 173.915 C 330.019 173.760,328.728 173.341,327.682 172.984 C 325.442 172.217,325.816 172.281,325.370 172.593 M235.882 175.209 C 233.709 177.059,233.282 177.614,233.617 178.151 C 234.068 178.870,234.672 178.597,236.925 176.655 C 239.257 174.645,239.484 174.337,239.083 173.726 C 238.631 173.037,238.200 173.237,235.882 175.209 M339.137 176.029 C 338.608 176.445,338.685 177.212,339.282 177.484 C 340.084 177.850,344.870 177.940,345.214 177.596 C 346.117 176.693,345.434 176.238,342.971 176.101 C 341.841 176.039,340.579 175.947,340.167 175.898 C 339.674 175.839,339.320 175.884,339.137 176.029 M182.089 177.827 C 181.463 178.519,181.797 178.840,184.683 180.316 C 187.582 181.799,188.061 181.897,188.272 181.055 C 188.448 180.356,188.211 180.158,185.575 178.799 C 182.901 177.421,182.546 177.322,182.089 177.827 M119.374 180.375 C 116.203 183.013,116.137 183.093,116.583 183.773 C 117.034 184.461,117.466 184.260,119.875 182.238 C 121.796 180.626,122.167 180.241,122.167 179.858 C 122.167 178.578,121.354 178.728,119.374 180.375 M225.813 183.134 C 225.137 183.574,224.006 184.252,223.301 184.641 C 221.981 185.367,221.685 185.745,221.991 186.316 C 222.299 186.891,222.745 186.882,223.947 186.275 C 227.400 184.531,228.906 183.074,227.844 182.506 C 227.321 182.226,227.105 182.293,225.813 183.134 M194.942 184.138 C 194.189 184.971,194.522 185.272,197.750 186.673 C 200.534 187.881,201.333 187.917,201.333 186.834 C 201.333 186.536,200.612 185.833,200.308 185.833 C 200.227 185.833,199.145 185.383,197.903 184.833 C 195.394 183.722,195.332 183.707,194.942 184.138 M213.500 188.025 C 212.996 188.101,211.706 188.188,210.634 188.220 C 208.199 188.292,207.336 188.948,208.593 189.771 C 209.321 190.249,214.660 189.866,215.022 189.310 C 215.568 188.472,214.807 187.830,213.500 188.025 M108.316 189.689 C 107.272 190.526,106.245 191.324,106.035 191.463 C 105.417 191.869,105.268 192.292,105.575 192.761 C 106.001 193.411,106.542 193.277,108.014 192.156 C 111.392 189.585,111.772 189.116,111.029 188.442 C 110.531 187.992,110.304 188.096,108.316 189.689 M96.833 197.909 C 93.714 199.918,93.667 199.955,93.667 200.411 C 93.667 201.173,94.348 201.434,95.202 200.999 C 98.490 199.324,100.418 197.506,99.566 196.883 C 99.080 196.528,98.835 196.619,96.833 197.909 M83.667 204.808 C 80.746 205.995,80.369 206.323,81.023 207.111 C 81.599 207.805,87.500 205.523,87.500 204.605 C 87.500 203.427,87.000 203.454,83.667 204.808 M72.819 208.067 C 72.781 208.103,71.550 208.338,70.083 208.588 C 67.174 209.084,67.000 209.155,67.000 209.833 C 67.000 210.815,67.299 210.838,71.240 210.149 C 73.399 209.771,74.000 209.503,74.000 208.917 C 74.000 208.438,73.104 207.793,72.819 208.067 M56.028 209.833 C 52.907 209.923,52.514 210.053,52.766 210.908 C 52.982 211.640,53.236 211.687,56.333 211.571 C 59.625 211.447,60.063 211.296,59.742 210.397 C 59.520 209.776,59.281 209.739,56.028 209.833 "
        fill="#d52c2c" stroke="none" />
</svg>